<?xml version="1.0" encoding="UTF-8"?>
<svg version="1.1" xmlns="http://www.w3.org/2000/svg" width="615" height="615">
<path d="M0 0 C202.95 0 405.9 0 615 0 C615 202.95 615 405.9 615 615 C412.05 615 209.1 615 0 615 C0 412.05 0 209.1 0 0 Z " fill="#010101" transform="translate(0,0)"/>
<path d="M0 0 C4.15203604 1.70785719 7.28774343 4.64409488 10.625 7.5625 C11.24455566 8.0989917 11.86411133 8.6354834 12.50244141 9.18823242 C16.9654189 13.0643405 21.37411619 16.99889103 25.75390625 20.96875 C28.5611222 23.50744964 31.39019252 26.01798211 34.2578125 28.48828125 C35.76243826 29.79386459 37.22891372 31.14317555 38.6875 32.5 C40.86672344 34.23577928 40.86672344 34.23577928 43.32421875 33.875 C46.77157366 32.74768978 48.52223957 31.01729665 51.125 28.5 C52.09412625 27.58097824 53.06554087 26.66436444 54.0390625 25.75 C54.53051758 25.28722656 55.02197266 24.82445313 55.52832031 24.34765625 C57.76988756 22.29499348 60.12988247 20.40152696 62.5 18.5 C67.33753642 14.59809025 71.93468202 10.48591413 76.4921875 6.26171875 C78.92279874 4.06962544 81.42369248 2.01764586 84 0 C87.44779086 1.50006391 89.82360533 3.50409262 92.5625 6.0625 C96.05918953 9.27291085 99.60799393 12.34456239 103.3125 15.3125 C108.3027635 19.34172844 113.00895364 23.61754516 117.6730957 28.01489258 C120.03737768 30.23568508 122.29315301 32.19543534 125 34 C129.42423583 33.48432462 132.16103097 30.59553408 135.375 27.75 C136.28233887 26.96157715 136.28233887 26.96157715 137.20800781 26.15722656 C142.44460274 21.57419325 147.53830543 16.83579684 152.55615234 12.01464844 C156.78617892 8 156.78617892 8 159 8 C159 7.34 159 6.68 159 6 C159.66 6 160.32 6 161 6 C161.33 58.14 161.66 110.28 162 164 C181.74261285 152.48347584 191.5926538 140.6577422 197.42578125 118.8125 C197.91078998 116.95883876 198.3938224 115.10465943 198.875 113.25 C208.10051433 77.93718643 228.26183557 51.53898824 259 32 C257.60633871 27.80403053 255.64159779 25.20701426 252.625 22 C244.1261772 12.90426991 244.1261772 12.90426991 243.625 9.3125 C244 7 244 7 246 5 C248.42604065 4.68356323 248.42604065 4.68356323 251.52172852 4.58935547 C253.26239342 4.52951981 253.26239342 4.52951981 255.03822327 4.46847534 C256.30564865 4.43505035 257.57307404 4.40162537 258.87890625 4.3671875 C260.1929393 4.32562531 261.50697235 4.28406311 262.86082458 4.24124146 C265.66269074 4.15310753 268.46464549 4.07139797 271.2668457 3.99462891 C274.77872507 3.89830671 278.29012697 3.7906885 281.80153847 3.67872238 C295.33207556 3.24884661 308.86483737 2.91338181 322.40234375 2.8203125 C323.45289444 2.80684784 324.50344513 2.79338318 325.58583069 2.7795105 C326.53969162 2.77766754 327.49355255 2.77582458 328.47631836 2.77392578 C329.30675156 2.7690213 330.13718475 2.76411682 330.99278259 2.75906372 C333 3 333 3 335 5 C334.62765759 9.72015614 333.51017548 14.00756934 332.0625 18.5 C331.85286621 19.15597168 331.64323242 19.81194336 331.42724609 20.48779297 C330.62418978 22.99383504 329.8117981 25.49677584 329 28 C328.23009503 30.38790037 327.46059703 32.77593198 326.69140625 35.1640625 C325.40103374 39.16976223 324.10934281 43.17502164 322.81274414 47.17871094 C320.80697179 53.37487506 318.81200781 59.5734094 316.8671875 65.7890625 C316.54862793 66.80468262 316.23006836 67.82030273 315.90185547 68.86669922 C315.31608387 70.73945575 314.73415468 72.61342004 314.15673828 74.48876953 C313.89876465 75.31231934 313.64079102 76.13586914 313.375 76.984375 C313.15585937 77.69303711 312.93671875 78.40169922 312.7109375 79.13183594 C312 81 312 81 310 84 C307.21875 84.56640625 307.21875 84.56640625 304 84 C301.85988012 82.00115208 300.24771006 80.23494602 298.5 77.9375 C297.54563282 76.74474373 296.59120617 75.55203505 295.63671875 74.359375 C294.95875244 73.4921582 294.95875244 73.4921582 294.26708984 72.60742188 C292.67203644 70.58394757 291.00330539 68.63132378 289.3125 66.6875 C288.1678125 65.3571875 288.1678125 65.3571875 287 64 C269.73120534 69.11950992 255.58003159 84.56402244 247.00390625 99.765625 C242.87312315 107.39679056 240.3424357 114.90553217 238.55078125 123.37304688 C233.29126439 147.58873909 221.4422553 166.5577447 204 184 C243.6 184.495 243.6 184.495 284 185 C284 175.1 284 165.2 284 155 C289 154 289 154 292 156 C292 156.66 292 157.32 292 158 C292.54398437 158.21527344 293.08796875 158.43054688 293.6484375 158.65234375 C296.80929113 160.46379641 299.12763796 162.95496023 301.625 165.5625 C304.96402902 169.22714016 304.96402902 169.22714016 309 172 C309 172.66 309 173.32 309 174 C309.55171875 174.22300781 310.1034375 174.44601562 310.671875 174.67578125 C313.7305676 176.41554097 315.8073812 178.65764482 318.25 181.1875 C321.44246204 184.45640277 324.64690448 187.65674579 328.125 190.625 C331.13719849 193.23640701 334.13725027 195.85360156 337.0625 198.5625 C337.83722656 199.26503906 338.61195313 199.96757812 339.41015625 200.69140625 C341 203 341 203 341.03515625 206 C339.7808356 209.63516323 338.32815574 211.00627662 335.375 213.4375 C332.25792468 216.0808153 329.22232972 218.69198675 326.375 221.625 C324.0267111 224.01728495 321.60395483 226.25135536 319.0625 228.4375 C316.25423653 230.85617779 313.60029407 233.35899683 311 236 C307.82680333 239.22268122 304.52202424 242.19632978 301.078125 245.125 C297.91122975 247.9823491 295.05078997 251.12902524 292.17578125 254.27734375 C290 256 290 256 287.29296875 256.31640625 C285 256 285 256 284 255 C284 245.1 284 235.2 284 225 C257.6 225.33 231.2 225.66 204 226 C207.96 229.96 211.92 233.92 216 238 C231.66130367 257.37754521 236.7410923 280.36940587 238.27441406 304.67114258 C239.68119166 325.79646305 246.73851262 343.41049041 262.25 358.25 C268.92254946 363.96271998 276.725287 367.2897753 285 370 C284.98952637 369.10168457 284.97905273 368.20336914 284.96826172 367.27783203 C284.9342053 363.94935553 284.90911382 360.62106378 284.89013672 357.29248047 C284.88007037 355.85104453 284.8664162 354.40962905 284.84912109 352.96826172 C284.82489988 350.89806066 284.81352359 348.82812924 284.8046875 346.7578125 C284.79421387 345.5114502 284.78374023 344.26508789 284.77294922 342.98095703 C285 340 285 340 287 338 C290.37404755 338.33392636 292.22288899 339.76789946 294.6875 342 C295.38230469 342.6290625 296.07710938 343.258125 296.79296875 343.90625 C299.77508595 346.73530278 302.66914727 349.64358257 305.53125 352.59375 C307.55750213 354.5687046 309.61415058 356.42892041 311.75 358.28125 C316.8601098 362.71509178 321.74249001 367.37810526 326.64453125 372.0390625 C327.34964844 372.70679688 328.05476563 373.37453125 328.78125 374.0625 C329.47347656 374.7225 330.16570312 375.3825 330.87890625 376.0625 C332.30144552 377.36190972 333.76983942 378.61270239 335.27734375 379.8125 C338.79255507 382.61965628 340.72777569 384.27618492 342.33984375 388.5625 C341.88862147 393.12658744 339.84470253 395.09457102 336.5625 398 C335.79776367 398.72316406 335.79776367 398.72316406 335.01757812 399.4609375 C332.11292369 402.18202641 329.10436119 404.78287351 326.1015625 407.39453125 C321.90345767 411.05400563 317.85275716 414.85545991 313.8125 418.6875 C312.3243782 420.08871103 310.83609517 421.48975084 309.34765625 422.890625 C306.61207597 425.46997258 303.89137084 428.06338069 301.18359375 430.671875 C300.03922269 431.76058507 298.89470108 432.84913693 297.75 433.9375 C296.98200073 434.69003052 296.98200073 434.69003052 296.19848633 435.45776367 C293.28262855 438.21025173 291.09133887 439.89418951 287 440 C285 438 285 438 284.77294922 435.11083984 C284.78342285 433.90637207 284.79389648 432.7019043 284.8046875 431.4609375 C284.81113281 430.15898438 284.81757813 428.85703125 284.82421875 427.515625 C284.84093071 426.13541405 284.85786061 424.75520571 284.875 423.375 C284.88502994 421.98698548 284.89415577 420.59896411 284.90234375 419.2109375 C284.92598137 415.80711974 284.95893133 412.40364494 285 409 C284.05314331 409.03589233 284.05314331 409.03589233 283.0871582 409.07250977 C265.22392031 409.4601479 249.20367433 400.43136905 236 389 C235.25234375 388.39671875 234.5046875 387.7934375 233.734375 387.171875 C211.828903 368.94284585 199.98510985 339.21534501 197.3515625 311.51171875 C197.10750215 308.6387973 196.93493653 305.77596074 196.8359375 302.89453125 C196.28071954 288.09358939 193.10527705 274.97741143 184 263 C183.06607422 261.74123047 183.06607422 261.74123047 182.11328125 260.45703125 C179.85523003 257.8316815 177.55925501 255.95615039 174.75 253.9375 C173.41195312 252.96103516 173.41195312 252.96103516 172.046875 251.96484375 C169.65008245 250.41921984 167.35614379 249.1320424 164.80957031 247.87719727 C164.0945636 247.52367691 163.37955688 247.17015656 162.6428833 246.80592346 C162.10073181 246.53996872 161.55858032 246.27401398 161 246 C161.00444122 247.24233398 161.00888245 248.48466797 161.01345825 249.76464844 C161.05418654 261.53256918 161.08407129 273.30047542 161.10362434 285.06845093 C161.11401501 291.11695314 161.12808704 297.16539798 161.15087891 303.21386719 C161.17277676 309.06238358 161.184604 314.91084515 161.18975449 320.75939941 C161.19342006 322.97905336 161.200577 325.19870467 161.21146011 327.41833496 C161.42542213 372.90880586 161.42542213 372.90880586 145.6875 389.8125 C137.25103204 397.69149211 127.51979652 400.6249765 116.1484375 400.3671875 C104.63397506 399.02430975 95.98810843 392.29976075 88.96484375 383.4296875 C79.8394766 370.13881305 78.99002864 355.84045823 78 340 C27.51 339.67 -22.98 339.34 -75 339 C-75 229.11 -75 119.22 -75 6 C-71.70588837 7.64705582 -70.01074739 8.71942351 -67.4609375 11.16015625 C-66.47323364 12.09758667 -66.47323364 12.09758667 -65.46557617 13.05395508 C-64.77568604 13.7167749 -64.0857959 14.37959473 -63.375 15.0625 C-61.94206863 16.42257321 -60.50847561 17.78194965 -59.07421875 19.140625 C-58.3786084 19.80126953 -57.68299805 20.46191406 -56.96630859 21.14257812 C-49.83272357 28.00246909 -49.83272357 28.00246909 -42 34 C-33.85997616 33.42341498 -25.34893105 22.54810167 -19.5 17.10375977 C-15.27990568 13.19618871 -10.87511675 9.55533848 -6.375 5.97265625 C-4.1101357 4.09147784 -2.04485817 2.11586019 0 0 Z " fill="#FDFDFD" transform="translate(136,100)"/>
<path d="M0 0 C61.05 0 122.1 0 185 0 C186.98 6.93 188.96 13.86 191 21 C196.21127152 32.09807824 202.24507849 41.95867828 212.53125 48.94140625 C213.0159375 49.29074219 213.500625 49.64007813 214 50 C214 50.33 214 50.66 214 51 C191.11208401 51.09355327 168.22419968 51.16403307 145.3361311 51.20724869 C134.70815313 51.2278502 124.08029416 51.25592469 113.45239258 51.30175781 C104.18619639 51.3416994 94.9200864 51.36745033 85.65380651 51.37635398 C80.74999873 51.38155633 75.84643752 51.39373339 70.94270897 51.42292023 C66.32079475 51.4502051 61.6992271 51.45841872 57.07723999 51.45243073 C55.38704351 51.45352514 53.69683463 51.46140085 52.00670815 51.4768219 C36.23287378 51.6136049 24.97937438 48.29114166 13.1875 37.3125 C3.28934732 26.58950126 0 14.23173107 0 0 Z " fill="#FCFCFC" transform="translate(10,459)"/>
<path d="M0 0 C1.76185412 -0.01645236 3.52364453 -0.04359827 5.28515625 -0.08203125 C20.16747353 -0.40412902 32.83249478 0.91349848 44.54956055 11.18994141 C52.81341333 19.37974533 59.56689902 29.86258261 60.10424805 41.78759766 C60.08533955 45.61341712 59.85728105 46.19251857 57.29174805 49.35009766 C56.44612305 50.01009766 55.60049805 50.67009766 54.72924805 51.35009766 C54.39924805 51.68009766 54.06924805 52.01009766 53.72924805 52.35009766 C50.58985455 52.46680306 47.47218197 52.51813856 44.33178711 52.52709961 C43.34480835 52.53367081 42.35782959 52.540242 41.34094238 52.54701233 C38.0589186 52.56680081 34.7769407 52.57842075 31.49487305 52.58837891 C29.81762775 52.5944922 29.81762775 52.5944922 28.10649872 52.60072899 C22.18745608 52.62161424 16.26843679 52.63590484 10.34936523 52.64526367 C4.22792564 52.65632823 -1.89315045 52.69072198 -8.01446152 52.73043537 C-12.71389451 52.75655542 -17.41324036 52.76495146 -22.11273956 52.76854515 C-24.36941226 52.77342369 -26.62608074 52.78507348 -28.8826828 52.80358315 C-32.04065378 52.82787413 -35.19767751 52.82702756 -38.35571289 52.82006836 C-39.75705475 52.83928345 -39.75705475 52.83928345 -41.18670654 52.85888672 C-45.42243287 52.82483199 -47.6698232 52.72445971 -51.33746338 50.43962097 C-53.99549195 47.56678929 -54.25567426 45.84425869 -54.4621582 42.03369141 C-53.61236202 30.11920207 -47.62040776 19.2479064 -39.14575195 11.03759766 C-27.2489272 1.10313575 -14.74712506 0.1004776 0 0 Z " fill="#FAFAFA" transform="translate(544.270751953125,314.64990234375)"/>
<path d="M0 0 C3.0329249 0.03439575 6.06293988 0.02059232 9.09594727 0.0012207 C22.90240573 0.01129142 33.76640414 1.16815758 44.47290039 10.59692383 C45.14063477 11.14864258 45.80836914 11.70036133 46.49633789 12.26879883 C53.86456043 18.87479145 59.48872919 28.86415014 60.74633789 38.74536133 C60.77985352 39.48012695 60.81336914 40.21489258 60.84790039 40.97192383 C60.92137695 42.06633789 60.92137695 42.06633789 60.99633789 43.18286133 C60.20134997 46.84929816 58.4112314 49.35526459 55.47290039 51.59692383 C52.16128785 52.47684701 48.94006499 52.39717912 45.52954102 52.34155273 C44.53222458 52.34885406 43.53490814 52.3561554 42.50737 52.36367798 C39.21393502 52.37987725 35.92247211 52.35268376 32.62915039 52.32348633 C30.33898927 52.32244895 28.04882635 52.32348504 25.75866699 52.32650757 C20.96017857 52.32632818 16.16236258 52.30548206 11.36401367 52.26928711 C5.21341992 52.22391179 -0.93619137 52.22282471 -7.08690643 52.2363224 C-11.81557954 52.24300561 -16.54402868 52.22973519 -21.2726593 52.21006393 C-23.54045947 52.20236587 -25.80828457 52.20006106 -28.07609558 52.20323563 C-31.24579324 52.20397746 -34.41423178 52.17872569 -37.58374023 52.14624023 C-38.98968193 52.15367249 -38.98968193 52.15367249 -40.42402649 52.16125488 C-44.65081546 52.09211993 -46.93020552 51.96949136 -50.58605957 49.68759155 C-52.77836109 47.32629352 -53.50847427 46.41377814 -53.58178711 43.19848633 C-52.77613959 29.85275997 -48.04709933 20.85201921 -38.52709961 11.59692383 C-37.96120117 11.01040039 -37.39530273 10.42387695 -36.81225586 9.81958008 C-26.32086895 -0.26138582 -13.66022055 -0.17154129 0 0 Z " fill="#FDFDFD" transform="translate(543.527099609375,120.403076171875)"/>
<path d="M0 0 C0.91843689 -0.0066568 1.83687378 -0.0133136 2.78314209 -0.02017212 C4.71950288 -0.03025712 6.65589813 -0.03499043 8.59228516 -0.03466797 C11.52435929 -0.03902901 14.45491152 -0.07535934 17.38671875 -0.11328125 C31.05373664 -0.19600354 41.70284748 0.98186803 52.296875 10.3359375 C52.97621094 10.91085937 53.65554688 11.48578125 54.35546875 12.078125 C63.51710819 20.42578135 68.17067828 31.88713168 68.85546875 44.125 C67.94434848 47.73125227 66.21687447 49.06918962 63.296875 51.3359375 C59.94844211 52.07257475 56.66325992 52.00918018 53.24584961 51.96704102 C52.23717331 51.97419632 51.22849701 51.98135162 50.18925476 51.98872375 C46.85878056 52.00561751 43.52965096 51.98620451 40.19921875 51.96484375 C37.88424061 51.96567231 35.56926252 51.96813122 33.25428772 51.97215271 C28.40461502 51.97501111 23.55540406 51.96030353 18.70581055 51.93286133 C12.4856414 51.89876008 6.26629698 51.90480303 0.04608822 51.9235239 C-4.73313792 51.93408508 -9.51217168 51.92516429 -14.29137993 51.91013908 C-16.58513251 51.90495165 -18.87890514 51.90544584 -21.17265511 51.91168404 C-24.37604209 51.91712613 -27.57824233 51.89679283 -30.78149414 51.86938477 C-31.73173462 51.87591064 -32.6819751 51.88243652 -33.66101074 51.88916016 C-40.08716531 51.79553239 -40.08716531 51.79553239 -43.26072693 49.42759705 C-46.6622448 44.49496612 -45.65778511 40.07881472 -44.703125 34.3359375 C-41.17731287 21.95886784 -33.39831346 11.36380415 -22.203125 5.0234375 C-14.77433826 1.03592697 -8.29720688 0.0212276 0 0 Z " fill="#FDFDFD" transform="translate(535.703125,509.6640625)"/>
<path d="M0 0 C50.82 0 101.64 0 154 0 C154 8.58 154 17.16 154 26 C103.18 26 52.36 26 0 26 C0 17.42 0 8.84 0 0 Z " fill="#040404" transform="translate(102,218)"/>
<path d="M0 0 C6.33309754 4.51569327 11.15360658 11.19532198 12.66796875 18.90234375 C13.53777905 26.83936276 12.72005184 33.00715973 8.66796875 39.90234375 C8.30574219 40.54042969 7.94351563 41.17851563 7.5703125 41.8359375 C3.62644037 48.0525495 -2.43491972 51.59994049 -9.33203125 53.90234375 C-18.38077192 54.95195347 -25.82015625 54.23725318 -33.33203125 48.90234375 C-39.14984581 44.18307606 -43.84535916 38.40517485 -45.33203125 30.90234375 C-46.26553346 21.46019847 -44.55889345 12.63858424 -38.64453125 5.02734375 C-28.34195713 -5.87818 -12.77508036 -7.17227101 0 0 Z " fill="#FBFBFB" transform="translate(563.33203125,53.09765625)"/>
<path d="M0 0 C0.63292969 0.40992188 1.26585937 0.81984375 1.91796875 1.2421875 C2.54058594 1.63148438 3.16320312 2.02078125 3.8046875 2.421875 C10.11180112 7.04617957 14.12368725 14.456967 15.39453125 22.11328125 C15.66469907 30.77093195 13.86887051 38.33472621 8.29296875 45.0546875 C2.36536317 51.23383354 -4.60428006 55.3027831 -13.26953125 55.4921875 C-23.22353814 55.32900706 -30.43522643 50.88899232 -37.33203125 43.9921875 C-42.27743608 36.22083705 -44.6071847 28.46296257 -43.08203125 19.2421875 C-40.47861088 11.66191052 -36.85066212 5.6287251 -30.08203125 1.2421875 C-29.52257812 0.83226562 -28.963125 0.42234375 -28.38671875 0 C-20.31179917 -5.06867246 -8.21862722 -4.47167334 0 0 Z " fill="#FBFBFB" transform="translate(561.08203125,246.7578125)"/>
<path d="M0 0 C6.68508835 5.16218715 11.63761144 11.54814504 13 20 C13.83727344 28.93549191 12.64694641 36.27605313 7.08203125 43.484375 C0.26046883 50.87339483 -6.46766511 54.09149836 -16.5 54.5625 C-25.0747606 54.25014092 -31.05839721 51.02853399 -37.375 45.375 C-42.7423957 39.59472771 -45.13336785 32.70944425 -45.4375 24.875 C-44.8814068 14.50549746 -40.70255239 7.92980441 -33 1 C-22.72628683 -5.84914211 -10.7662349 -5.74521055 0 0 Z " fill="#FCFCFC" transform="translate(563,442)"/>
<path d="M0 0 C27.06 0 54.12 0 82 0 C82 8.58 82 17.16 82 26 C54.94 26 27.88 26 0 26 C0 17.42 0 8.84 0 0 Z " fill="#060606" transform="translate(102,290)"/>
<path d="M0 0 C23.76 0 47.52 0 72 0 C72 8.58 72 17.16 72 26 C48.24 26 24.48 26 0 26 C0 17.42 0 8.84 0 0 Z " fill="#040504" transform="translate(102,361)"/>
<path d="M0 0 C13.53 0 27.06 0 41 0 C41 8.58 41 17.16 41 26 C27.47 26 13.94 26 0 26 C0 17.42 0 8.84 0 0 Z " fill="#040404" transform="translate(215,361)"/>
<path d="M0 0 C13.53 0 27.06 0 41 0 C41 8.58 41 17.16 41 26 C27.47 26 13.94 26 0 26 C0 17.42 0 8.84 0 0 Z " fill="#050505" transform="translate(215,290)"/>
</svg>
